<svg fill="none" height="512" viewBox="0 0 24 24" width="512" xmlns="http://www.w3.org/2000/svg" xmlns:xlink="http://www.w3.org/1999/xlink"><clipPath id="clip0_17_17330"><path d="m0 0h24v24h-24z"/></clipPath><g clip-path="url(#clip0_17_17330)"><path d="m15 1h-11c-1.1 0-2 .9-2 2v13c0 .55.45 1 1 1s1-.45 1-1v-12c0-.55.45-1 1-1h10c.55 0 1-.45 1-1s-.45-1-1-1zm4 4h-11c-1.1 0-2 .9-2 2v14c0 1.1.9 2 2 2h11c1.1 0 2-.9 2-2v-14c0-1.1-.9-2-2-2zm-1 16h-9c-.55 0-1-.45-1-1v-12c0-.55.45-1 1-1h9c.55 0 1 .45 1 1v12c0 .55-.45 1-1 1z" fill="#000"/></g></svg>