<svg id="Layer_1" enable-background="new 0 0 128 128" height="512" viewBox="0 0 128 128" width="512" xmlns="http://www.w3.org/2000/svg"><path d="m109.1 55.5-1.7-1.7c-2.2-2.2-5.9-2.2-8.1 0l-4.3 4.2-4.4 4.4v-29.3c0-5.2-4.2-9.4-9.4-9.4h-.6v-2.2c0-1.1-.5-2.2-1.3-3-1.7-1.7-4.4-1.7-6.1 0-.8.8-1.3 1.9-1.3 3.1v2.2h-5.8v-2.2c0-1.1-.5-2.2-1.3-3-1.7-1.7-4.4-1.7-6.1 0-.8.8-1.3 1.9-1.3 3v2.2h-5.8v-2.2c0-1.1-.5-2.2-1.3-3-1.7-1.7-4.4-1.7-6.1 0-.8.8-1.3 1.9-1.3 3.1v2.2h-5.8v-2.2c0-1.1-.5-2.2-1.3-3-1.7-1.7-4.4-1.7-6.1 0-.8.8-1.3 1.9-1.3 3.1v2.2h-.6c-5.2 0-9.4 4.2-9.4 9.4v68.3c0 5.2 4.2 9.4 9.4 9.4h53c5.2 0 9.4-4.2 9.4-9.4v-19.7l14.2-14.2 4.3-4.3c2.6-2.2 2.6-5.8.4-8zm-33.6-33.9c0-.4.4-.8.8-.8.5 0 .8.4.8.8v7.6c0 .4-.3.8-.8.8-.4 0-.8-.4-.8-.8zm-14.4 0c0-.4.4-.8.8-.8.5 0 .8.4.8.8v7.6c0 .4-.3.8-.8.8-.4 0-.8-.4-.8-.8zm-14.4 0c0-.4.4-.8.8-.8.5 0 .8.4.8.8v7.6c0 .4-.4.8-.8.8s-.8-.3-.8-.8zm-14.3 0c0-.4.4-.8.8-.8.5 0 .8.4.8.8v7.6c0 .4-.4.8-.8.8s-.8-.3-.8-.8zm54.7 79.8c0 3.2-2.6 5.9-5.9 5.9h-53c-3.2 0-5.9-2.6-5.9-5.9v-68.3c0-3.2 2.6-5.9 5.9-5.9h.6v1.9c0 2.4 1.9 4.3 4.3 4.3s4.3-1.9 4.3-4.3v-1.9h5.8v1.9c0 2.4 1.9 4.3 4.3 4.3s4.3-1.9 4.3-4.3v-1.9h5.8v1.9c0 2.4 1.9 4.3 4.3 4.3s4.3-1.9 4.3-4.3v-1.9h5.8v1.9c0 2.4 1.9 4.3 4.3 4.3s4.3-1.9 4.3-4.3v-1.9h.6c3.2 0 5.9 2.6 5.9 5.9v32.8s-10.7 10.7-14.3 14.3c-.2.2-.4.5-.5.9l-2.1 9.4c-.3 1.3.8 2.4 2.1 2.1l9.4-2.1c.4-.1.7-.3.9-.5.1-.1 4.6-4.6 4.5-4.5zm-12.1-16.5 2.9 2.9-3.7.8zm6.4 1.4-4.9-4.9 13.6-13.6 6.1-6.1 4.9 4.9zm25.2-25.2-3.1 3.1-4.9-4.9 3.1-3.1c.9-.8 2.3-.8 3.2 0l1.7 1.7c.9.9.9 2.3 0 3.2z"/><path d="m32.8 46.5h43.8c1 0 1.8-.8 1.8-1.8s-.8-1.7-1.7-1.7h-43.9c-1 0-1.8.8-1.8 1.8s.9 1.7 1.8 1.7z"/><path d="m32.8 61.5h43.8c1 0 1.8-.8 1.8-1.8s-.8-1.7-1.7-1.7h-43.9c-1 0-1.8.8-1.8 1.8s.9 1.7 1.8 1.7z"/><path d="m64.5 73h-31.7c-1 0-1.8.8-1.8 1.8s.8 1.8 1.8 1.8h31.7c1 0 1.8-.8 1.8-1.8s-.8-1.8-1.8-1.8z"/><path d="m59.7 88.1h-26.9c-1 0-1.8.8-1.8 1.8s.8 1.8 1.8 1.8h26.8c1 0 1.8-.8 1.8-1.8s-.8-1.8-1.7-1.8z"/></svg>