<svg id="svg6331" height="512" viewBox="0 0 32 32" width="512" xmlns="http://www.w3.org/2000/svg" xmlns:svg="http://www.w3.org/2000/svg"><g id="layer1"><path id="path1395" d="m16.000049 1.9999986c-7.72014-.000006-14.00001 6.279842-14 14.0000004.00001 7.72014 6.27987 14.000002 14 14.000002.0303 0 .0596-.004.0898-.004.55228 0 1-.44772 1-1s-.44772-1-1-1c-.0294.003-.0612.004-.0898.004-.33907 0-.73084-.16969-1.20703-.693362-.47619-.52368-.97271-1.375916-1.39453-2.472656-.4124-1.07224-.75476-2.375985-.99805-3.833984h4.09571c.55152-.0011.99804-.44848.99804-1s-.44652-.998919-.99804-1h-4.3418c-.0918-.96454-.1543-1.959722-.1543-3 0-1.041.0624-2.035123.1543-3h7.69141c.0919.964877.15429 1.959.15429 3 0 .164955-.00059.313818-.004.476562.00003.552261.44969.999994 1.00195 1 .55227.000011.99997-.447727 1-1-.001-.162475.00095-.33618.002-.476562 0-1.03219-.0481-2.032812-.13281-3h5.74024c.24668.960278.39257 1.961536.39257 3 0 .160318-.003.317994-.01.476562.00002.552261.44969.999994 1.00195 1 .55227.000011.99997-.447727 1-1 .005-.159531.008-.31574.008-.476562.00001-7.7201584-6.27985-14.0000084-14-14.0000004zm0 2c.33907-.000001.73084.171637 1.20703.695312.4762.523675.97272 1.375918 1.39454 2.472656.41222 1.071765.75477 2.375281.99804 3.8320324h-7.19922c.24327-1.4567504.58583-2.7602674.99805-3.8320324.42182-1.096738.91834-1.948981 1.39453-2.472656s.86796-.695313 1.20703-.695312zm-3.54297.53125c-.34366.570256-.65221 1.206682-.92578 1.917968-.50437 1.31138-.89769 2.853882-1.16015 4.5507824h-5.27344c1.41176-3.0803454 4.07836-5.4598024 7.35937-6.4687504zm7.08399 0c3.28183 1.008633 5.94931 3.387842 7.36133 6.4687504h-5.27539c-.26245-1.6968804-.65384-3.2394144-1.15821-4.5507824-.27368-.711563-.58391-1.347549-.92773-1.917968zm-15.15039 8.4687504h5.74219c-.0847.96719-.13282 1.967807-.13282 3 0 1.03149.0482 2.033189.13282 3h-5.74219c-.24649-.959942-.39063-1.961962-.39063-3 0-1.038382.14399-2.039792.39063-3zm.70703 8h5.27344c.26246 1.698149.65559 3.240874 1.16015 4.552734.2732.71031.58075 1.348286.92383 1.917968-3.28036-1.009312-5.94598-3.390682-7.35742-6.470702z" font-variant-ligatures="normal" font-variant-position="normal" font-variant-caps="normal" font-variant-numeric="normal" font-variant-alternates="normal" font-feature-settings="normal" text-indent="0" text-align="start" text-decoration-line="none" text-decoration-style="solid" text-decoration-color="rgb(0,0,0)" text-transform="none" text-orientation="mixed" white-space="normal" shape-padding="0" isolation="auto" mix-blend-mode="normal" solid-color="rgb(0,0,0)" solid-opacity="1" vector-effect="none" paint-order="normal"/><path id="path1369" d="m29.019579 19.478514c-.25253-.01347-.52018.07787-.75586.320313l-3.52539 3.52539-3.52539-3.52539c-.39298-.404302-1.04153-.404389-1.42968-.0039-.38794.400668-.37975 1.033317.0156 1.417969l3.52539 3.525391-3.52539 3.525394c-.4043.39299-.40438 1.04348-.004 1.43164.40066.38794 1.0333.37778 1.41796-.0176l3.52539-3.525392 3.52539 3.525392c.94275.96975 2.38385-.47135 1.41407-1.41406l-3.52539-3.525394 3.52539-3.525391c.7273-.707052.0994-1.693956-.65821-1.734375z" font-variant-ligatures="normal" font-variant-position="normal" font-variant-caps="normal" font-variant-numeric="normal" font-variant-alternates="normal" font-feature-settings="normal" text-indent="0" text-align="start" text-decoration-line="none" text-decoration-style="solid" text-decoration-color="rgb(0,0,0)" text-transform="none" text-orientation="mixed" white-space="normal" shape-padding="0" isolation="auto" mix-blend-mode="normal" solid-color="rgb(0,0,0)" solid-opacity="1" vector-effect="none"/></g></svg>