<svg id="Layer_1" enable-background="new 0 0 66 66" height="512" viewBox="0 0 66 66" width="512" xmlns="http://www.w3.org/2000/svg"><g><g><g><path d="m50.2 18.7h-11c-.6 0-1-.4-1-1s.4-1 1-1h11c.6 0 1 .4 1 1s-.4 1-1 1z"/></g><g><path d="m45.1 65h-35.5c-1.9 0-3.3-1.4-3.3-3.3v-41.7c0-1.9 1.4-3.3 3.3-3.3h3.4c.6 0 1 .4 1 1s-.4 1-1 1h-3.4c-.8 0-1.3.5-1.3 1.3v41.7c0 .8.5 1.3 1.3 1.3h35.5c.8 0 1.3-.5 1.3-1.3v-41.1c0-.6.4-1 1-1s1 .4 1 1v41.1c0 1.9-1.4 3.3-3.3 3.3z"/></g><g><path d="m47.4 59.9c-.6 0-1-.4-1-1v-38.2c0-2.2 1.7-3.9 3.8-3.9 1 0 2 .4 2.7 1.1s1.1 1.7 1.1 2.7v35.3c0 .6-.4 1-1 1s-1-.4-1-1v-35.3c0-.5-.2-1-.5-1.3s-.8-.5-1.3-.5c-1 0-1.8.8-1.8 1.9v38.2c0 .6-.4 1-1 1z"/></g><g><path d="m55.9 59.8h-.2c-2.1 0-3.8-1.7-3.8-3.8v-7.7c0-.6.4-1 1-1h5.7c.6 0 1 .4 1 1v7.7c.1.9-.3 1.9-1 2.6-.7.8-1.7 1.2-2.7 1.2zm-2-10.5v6.7c0 1 .8 1.8 1.8 1.8h.2c.5 0 .9-.2 1.3-.6.3-.3.5-.7.4-1.2v-6.8h-3.7z"/></g><g><path d="m55.8 59.8h-8.5c-.6 0-1-.4-1-1s.4-1 1-1h8.5c.6 0 1 .4 1 1s-.4 1-1 1z"/></g><g><g><path d="m22.6 42.5h-9.1c-.6 0-1-.4-1-1v-9.6c0-.6.4-1 1-1h9.1c.6 0 1 .4 1 1v9.6c0 .6-.4 1-1 1zm-8.1-2h7.1v-7.6h-7.1z"/></g><g><path d="m41.1 33h-13.7c-.6 0-1-.4-1-1s.4-1 1-1h13.7c.6 0 1 .4 1 1s-.4 1-1 1z"/></g><g><path d="m41.1 38.2h-13.7c-.6 0-1-.4-1-1s.4-1 1-1h13.7c.6 0 1 .4 1 1s-.4 1-1 1z"/></g><g><path d="m41.1 43.3h-13.7c-.6 0-1-.4-1-1s.4-1 1-1h13.7c.6 0 1 .4 1 1s-.4 1-1 1z"/></g><g><path d="m41.1 48.5h-27.6c-.6 0-1-.4-1-1s.4-1 1-1h27.6c.6 0 1 .4 1 1s-.4 1-1 1z"/></g><g><path d="m41.1 53.6h-27.6c-.6 0-1-.4-1-1s.4-1 1-1h27.6c.6 0 1 .4 1 1s-.4 1-1 1z"/></g><g><path d="m13.5 59c-.5 0-1-.4-1-1s.4-1 1-1l27.6-.2c.5 0 1 .4 1 1s-.4 1-1 1z"/></g></g></g><g><g><g><path d="m45.8 10.2c-.5 0-.9-.4-1-.8-.1-.5.3-1.1.8-1.1l3.9-.6c.6-.1 1.1.3 1.1.8.1.5-.3 1.1-.8 1.1l-3.8.6c-.1 0-.2 0-.2 0z"/></g><g><path d="m48.6 15.3c-.1 0-.2 0-.3-.1l-3.7-1.3c-.5-.2-.8-.8-.6-1.3s.8-.8 1.3-.6l3.7 1.3c.5.2.8.8.6 1.3-.2.4-.6.7-1 .7z"/></g><g><path d="m43.7 7c-.3 0-.6-.1-.8-.4-.3-.4-.3-1.1.2-1.4l3.1-2.5c.4-.3 1.1-.3 1.4.2.3.4.3 1.1-.2 1.4l-3.1 2.5c-.2.1-.4.2-.6.2z"/></g></g><g><g><path d="m36.5 21.6c-3 0-5.6-4.7-6.5-9.3-1-4.8-.3-10.3 2.8-11.2.8-.3 1.8-.1 2.7.4 2.1 1.3 3.9 4.7 4.7 8.7.8 4.1.4 7.9-1 9.9-.6.8-1.4 1.3-2.2 1.4-.2.1-.3.1-.5.1zm-2.8-18.6c-.1 0-.2 0-.3 0-1.5.5-2.4 4.3-1.4 8.9 1 5 3.5 7.9 4.7 7.7.3 0 .6-.2.8-.6.9-1.2 1.5-4.3.7-8.3s-2.4-6.6-3.8-7.4c-.2-.2-.5-.3-.7-.3z"/></g><g><path d="m18.3 22.8c-3.2 0-6-2.9-6.8-6.8-.4-2-.2-3.8.5-5.3.7-1.7 1.9-3 3.2-3.5l17.7-6c.4-.2 1 .1 1.1.6.2.5-.1 1.1-.6 1.3l-17.6 5.9c-1.1.4-1.7 1.6-2.1 2.4-.5 1.2-.6 2.6-.3 4.1.6 2.9 2.7 5.2 4.8 5.2l18.4-1.2c.5 0 1 .4 1.1.9 0 .6-.4 1-.9 1.1z"/></g></g><g><path d="m22.4 27.6c-.8 0-1.6-.2-2.3-.7-1-.7-1.7-1.7-2-2.9l-.4-2.1c-.1-.5.3-1.1.8-1.2s1.1.3 1.2.8l.4 2.1c.1.7.5 1.2 1.1 1.6.5.3 1.1.4 1.7.3.7-.1 1.3-.5 1.6-1.1.3-.5.4-1.1.3-1.7l-.2-1.3c-.1-.5.3-1.1.8-1.2.6-.1 1.1.3 1.2.8l.2 1.2c.2 1.1 0 2.2-.6 3.2-.7 1-1.7 1.7-2.9 2-.3.1-.6.2-.9.2z"/></g><g><g><path d="m18.1 13.4c-.5 0-.9-.3-1-.8s.3-1.1.8-1.2l5.8-1.1c.5-.1 1.1.3 1.2.8s-.3 1.1-.8 1.2l-5.8 1.1c-.1 0-.1 0-.2 0z"/></g><g><path d="m18.9 17.8c-.5 0-.9-.3-1-.8s.2-1.1.8-1.2l5.9-1.2c.5-.1 1.1.2 1.2.8.1.5-.2 1.1-.8 1.2l-5.9 1.2c-.1 0-.1 0-.2 0z"/></g></g></g></g></svg>